<svg version="1.2" xmlns="http://www.w3.org/2000/svg" viewBox="0 0 450 450" width="450" height="450">
	<title>13452-ai</title>
	<style>
		.s0 { fill: #ff0703 } 
		.s1 { fill: #ff751f } 
		.s2 { fill: #ffeb36 } 
	</style>
	<g id="Слой 1">
		<g id="&lt;Group&gt;">
			<g id="&lt;Group&gt;">
				<g id="&lt;Group&gt;">
					<path id="&lt;Compound Path&gt;" fill-rule="evenodd" class="s0" d="m105.7 416c-2.1 0-4-1-5.2-2.7l-71.3-99.4c-0.7-0.9-1.1-2.1-1.3-3.3-0.1-1.2 0.1-2.4 0.6-3.4l50.5-111.4c0.9-2.1 2.9-3.6 5.3-3.8l121.7-12c1-0.1 2.1 0 3.2 0.4q0.2 0.1 0.4 0.2c1 0.5 1.9 1.3 2.5 2.1l71.2 99.4c1.4 1.9 1.6 4.4 0.7 6.5l-50.5 111.4q-0.6 1.6-2 2.6 0 0 0 0-0.2 0.1-0.3 0.2c-0.9 0.7-2 1-3.1 1.1l-121.7 12q-0.3 0.1-0.7 0.1zm-59.5-100.6l62.6 87.2 106.9-10.5-62.6-87.3zm117.5-18.1l62.6 87.2 44.3-97.8-62.6-87.3zm-74.4-92.7l-44.3 97.9 106.9-10.6 44.3-97.8zm30 192.5c-4.5 0-9.1-2-12.6-5.7-6.1-6.6-6.4-16.4-0.6-21.8 5.9-5.5 15.6-4.5 21.8 2.2 6.1 6.6 6.4 16.4 0.6 21.8h-0.1c-2.5 2.3-5.8 3.5-9.1 3.5zm-4-18.1q-0.2 0-0.3 0.1c-0.2 0.3-0.2 1.9 1.3 3.4 1.4 1.6 3 1.7 3.3 1.6 0.2-0.4 0.2-2-1.3-3.5-1.1-1.2-2.4-1.6-3-1.6zm65.5 12q-1.1 0-2.2-0.1c-3.8-0.6-7.5-2.6-10.3-5.6-2.8-3-4.5-6.8-4.8-10.6-0.3-4.4 1.2-8.5 4.2-11.2 3-2.8 7.2-4 11.5-3.4 3.8 0.6 7.4 2.6 10.2 5.6 2.8 3 4.5 6.8 4.8 10.6 0.3 4.4-1.2 8.4-4.2 11.2-2.4 2.3-5.7 3.5-9.2 3.5zm-3.9-18q-0.2 0-0.3 0c-0.2 0.3-0.2 1.9 1.2 3.5 1.5 1.5 3 1.7 3.4 1.5 0.2-0.3 0.2-1.9-1.3-3.5-1.1-1.2-2.4-1.5-3-1.5zm-43.4-3.1c-4.4 0-9.1-2-12.5-5.8-6.2-6.6-6.5-16.4-0.6-21.8 5.8-5.4 15.5-4.4 21.7 2.2 6.1 6.7 6.4 16.4 0.6 21.9q0 0 0 0c-2.6 2.3-5.8 3.5-9.2 3.5zm-4-18.1q-0.2 0-0.3 0c-0.2 0.3-0.2 1.9 1.3 3.5 1.4 1.6 3 1.7 3.3 1.5 0.2-0.3 0.2-1.9-1.2-3.4-1.2-1.3-2.4-1.6-3.1-1.6zm95.1 12.3q-2.3 0-4.6-0.7c-3.8-1.3-7.2-3.9-9.5-7.4-4.8-7.2-4-16.3 1.6-21.2-3.1 1.4-6.7 1.6-10.2 0.5-3.8-1.2-7.2-3.9-9.5-7.4-4.8-7.2-4-16.3 1.6-21.2-6.6 3-15.1 0.2-19.8-6.9-2.3-3.5-3.4-7.6-3.1-11.6 0.4-4.4 2.6-8.3 6.1-10.6 3.5-2.3 7.9-2.8 12.1-1.5 3.8 1.2 7.2 3.8 9.5 7.3 4.8 7.2 4 16.4-1.6 21.2 3.1-1.3 6.8-1.5 10.3-0.4 3.8 1.2 7.1 3.8 9.5 7.3 2.3 3.6 3.4 7.7 3.1 11.6-0.4 3.9-2.1 7.3-4.8 9.6 3.2-1.4 6.8-1.5 10.3-0.4 3.8 1.2 7.2 3.8 9.5 7.3 5.1 7.8 3.8 17.7-3 22.2-2.2 1.5-4.8 2.3-7.5 2.3zm-3-19.4c-1.3 0.1-1.7 2-0.3 4.1 0.7 1.1 1.7 1.8 2.6 2.2h1c0.4-0.2 0.8-2.1-0.6-4.2-0.7-1-1.7-1.8-2.7-2.1zm-15.8-21.8c0 0 1 0 1 0 0.1-0.1 0.3-0.4 0.3-0.9 0.1-1-0.2-2.2-0.9-3.3-0.8-1-1.7-1.8-2.7-2.1-1.3 0.2-1.7 2-0.3 4.1 0.7 1.1 1.7 1.9 2.6 2.2zm-20.4-34.4l-1.3 0.8c-0.1 1.1 0.2 2.3 0.9 3.3 1.4 2.1 3.3 2.5 3.7 2.2 0.3-0.2 0.7-2.1-0.7-4.2-0.7-1-1.6-1.8-2.6-2.1zm-103.4 58.4q-1.1 0-2.3-0.2c-3.8-0.5-7.4-2.5-10.2-5.5-6.2-6.6-6.4-16.4-0.6-21.8 5.8-5.4 15.5-4.4 21.7 2.2 3.2 3.4 5 7.9 4.8 12.3-0.1 3.7-1.6 7.1-4.2 9.5-2.5 2.3-5.7 3.5-9.2 3.5zm-3.9-18.1q-0.3 0-0.4 0.1c-0.2 0.3-0.2 1.9 1.3 3.5 1.5 1.5 3 1.6 3.4 1.5 0.2-0.4 0.1-1.9-1.3-3.5-1.2-1.2-2.4-1.6-3-1.6zm69.6 13.8q-1.1 0-2.2-0.1c-3.9-0.6-7.5-2.6-10.3-5.6-3.2-3.5-5-8-4.8-12.3 0.1-3.8 1.6-7.1 4.2-9.5 3-2.8 7.2-4 11.5-3.4 3.8 0.6 7.4 2.6 10.2 5.6 2.8 3 4.5 6.8 4.8 10.6 0.3 4.4-1.2 8.5-4.2 11.2-2.5 2.3-5.7 3.5-9.2 3.5zm-3.9-18q-0.3 0-0.4 0c-0.1 0.3-0.1 1.9 1.3 3.5 1.4 1.5 3 1.6 3.4 1.5 0.2-0.3 0.1-1.9-1.3-3.5-1.1-1.2-2.4-1.5-3-1.5zm107.3-17.2c-5.3 0-10.7-2.9-14.2-8-4.4-6.6-4.1-14.9 0.4-20-6.5 2.2-14.2-0.6-18.7-7.3-2.3-3.5-3.4-7.6-3.1-11.6 0.3-3.2 1.5-6.1 3.5-8.3-2.9 1-6.1 1-9.1 0-3.8-1.2-7.2-3.8-9.5-7.3-2.4-3.6-3.5-7.7-3.2-11.6 0.4-4.5 2.6-8.3 6.1-10.6 6.8-4.5 16.5-1.9 21.7 5.8 2.3 3.5 3.4 7.7 3.1 11.6-0.3 3.2-1.5 6.1-3.5 8.3 2.8-1 6-1 9.1 0 3.8 1.2 7.2 3.8 9.5 7.3 4.4 6.6 4.1 14.9-0.3 20 2.8-1 6-1 9.1-0.1 3.8 1.3 7.2 3.9 9.5 7.4 2.4 3.5 3.5 7.6 3.1 11.6-0.4 4.4-2.6 8.3-6 10.6-2.3 1.5-4.9 2.2-7.5 2.2zm-3-19.4c-1.4 0.2-1.7 2.1-0.4 4.2 1.4 2 3.3 2.4 3.7 2.2 0.1-0.1 0.2-0.4 0.3-0.9 0.1-1-0.3-2.2-1-3.3-0.7-1.1-1.7-1.9-2.6-2.2zm52.3-3c-2.5 0-4.8-1.4-5.9-3.8-1.5-3.2-0.1-7.1 3.2-8.6l100.3-46.1 10-106.9-97.6 44.8-9.3 94.8c-0.4 3.6-3.6 6.2-7.1 5.8-3.6-0.3-6.2-3.5-5.8-7l9.2-94.8-87.6-62.2-6 64.5c-0.3 3.5-3.6 6.2-7.1 5.8-3.5-0.3-6.2-3.5-5.8-7.1l7-75.5c0.1-1.1 0.5-2.2 1.2-3.2q0 0 0 0 0 0 0 0 0 0 0 0 0 0 0 0 0-0.1 0.1-0.1 0 0 0 0c0.7-1 1.6-1.7 2.6-2.1l111.2-51c2.1-1 4.5-0.8 6.4 0.6l99.8 70.7c0.9 0.6 1.7 1.5 2.2 2.6q0 0 0 0 0 0.1 0.1 0.2 0 0 0 0c0.5 1.1 0.6 2.2 0.5 3.3l-11.4 121.8c-0.2 2.3-1.6 4.3-3.8 5.3l-103.7 47.6c-0.9 0.4-1.8 0.6-2.7 0.6zm-86.6-45.2c0 0 1 0.1 1 0.1 0.1-0.1 0.3-0.4 0.3-0.9 0.1-1-0.3-2.2-1-3.3-1.3-2.1-3.2-2.5-3.6-2.2-0.4 1.9 0 3.1 0.7 4.2 0.7 1 1.6 1.8 2.6 2.1zm-80 47.6q-0.1 0-0.2 0c-4.5-0.1-8.5-2.1-10.9-5.4-2.4-3.4-3-7.8-1.6-12.1 1.2-3.7 3.7-7 7.1-9.5 4.2-2.9 9.1-4.2 13.6-3.5 3.6 0.6 6.7 2.4 8.6 5.2 2.4 3.4 3 7.8 1.6 12.1-1.1 3.6-3.7 7-7.1 9.5-3.3 2.4-7.3 3.7-11.1 3.7zm6-17.9c-0.2 0.1-2 0.1-4 1.5-2 1.4-2.6 3.1-2.5 3.6 0.2-0.1 2.1-0.1 4-1.5 2-1.4 2.6-3.1 2.5-3.6zm90-8.7l-1.3 0.9c-0.1 1 0.2 2.2 0.9 3.2 1.4 2.1 3.3 2.5 3.7 2.2 0.3-0.2 0.7-2.1-0.7-4.2-0.7-1-1.6-1.8-2.6-2.1zm-12.4-170.4l87.6 62.2 97.6-44.8-87.6-62.2zm-101.1 172c-4.5 0-8.6-1.8-11.1-5.4-4.7-6.5-2.3-16 5.5-21.6 7.8-5.5 17.5-4.8 22.2 1.7 2.4 3.4 3 7.8 1.6 12.1-1.2 3.7-3.7 7-7.1 9.5-3.5 2.5-7.4 3.7-11.1 3.7zm5.9-17.9c-0.1 0.1-2 0.1-3.9 1.5-2 1.4-2.6 3.1-2.5 3.6 0.2-0.1 2-0.1 4-1.5 2-1.4 2.5-3.1 2.4-3.6zm200.9 9.8q-0.8 0.1-1.7-0.1c-4.2-0.5-7.9-3-10.3-6.8-2-3.5-2.9-7.7-2.3-12 0.6-4.9 3-9.3 6.6-12.1 3.1-2.3 6.7-3.3 10.3-2.9 4.2 0.6 7.9 3.1 10.3 6.9 2.1 3.5 2.9 7.7 2.4 11.9-0.6 4.3-2.5 8.2-5.3 11-2.8 2.7-6.4 4.1-10 4.1zm1-21c-1.4 0.9-2.2 2-2.5 3.8-0.1 1.3 0.1 2.6 0.7 3.5 0.2 0.5 0.6 0.7 0.7 0.7q0.1 0 0.1 0.1c0.2 0 0.5-0.2 0.9-0.6 0.8-0.7 1.3-1.9 1.5-3.2 0.2-1.3-0.1-2.6-0.6-3.5-0.3-0.5-0.6-0.8-0.8-0.8zm-52.6 17.2c-7.9 0-14.5-7.1-14.7-16.2-0.4-9.2 6-16.9 14-17.2 3.9 0 8.2 1.7 11.1 5.1 2.5 3 4 7 4.2 11.2 0.3 9.2-6.1 16.9-14.1 17.1-0.3 0.1-0.3 0-0.5 0zm0-19.9c-0.9 0-1.8 1.3-1.8 3.3 0.1 2.3 1.4 3.7 1.8 3.7 0.4-0.1 1.6-1.5 1.6-3.8-0.1-1.3-0.5-2.4-1.1-3.1q-0.2-0.2-0.5-0.1zm-172.7 6.8c-4.5 0-8.6-1.8-11.2-5.4-2.4-3.3-3-7.7-1.6-12 1.2-3.7 3.7-7.1 7.1-9.5 7.8-5.6 17.5-4.9 22.2 1.6 2.5 3.4 3 7.8 1.6 12.1-1.1 3.7-3.7 7.1-7.1 9.5-3.5 2.5-7.4 3.7-11 3.7zm1.9-16.4c-2 1.4-2.5 3.2-2.4 3.6 0.1 0 2 0 3.9-1.4 2-1.4 2.6-3.2 2.5-3.7-0.2 0.1-2 0.1-4 1.5zm176.2-27.5c-7.9 0-14.5-7.2-14.8-16.3-0.1-4.2 1.1-8.2 3.4-11.4 2.7-3.5 6.6-5.6 10.7-5.7 8.1-0.5 14.9 7 15.2 16.2 0.3 9.2-6 16.9-14.1 17.2-0.2-0.1-0.3 0-0.4 0zm-0.3-20.4c-1.2 1.3-1.6 2.5-1.5 3.7 0 2.3 1.4 3.7 1.8 3.7 0.4-0.1 1.6-1.5 1.5-3.8-0.1-2.3-1.4-3.6-1.8-3.6zm107.9-3.9q-0.9 0-1.7-0.2c-8.2-1-13.9-9.4-12.7-18.8 0.6-4.2 2.5-8.1 5.4-10.9 3.2-3.1 7.4-4.6 11.6-4.1 4.2 0.6 7.9 3.1 10.3 6.9 2.1 3.5 2.9 7.7 2.4 11.9-0.6 4.3-2.5 8.2-5.4 11-2.8 2.7-6.3 4.2-9.9 4.2zm0.9-21.1c-0.2 0-0.6 0.2-0.9 0.5-0.8 0.8-1.3 2-1.5 3.3-0.3 2.6 0.9 4.2 1.4 4.3 0.3 0.1 0.7-0.2 1-0.6 0.8-0.7 1.3-1.9 1.5-3.2 0.2-1.3-0.1-2.6-0.6-3.5-0.3-0.5-0.6-0.8-0.8-0.8q0 0-0.1 0zm-161.5 4.3c-7.9 0-14.5-7.1-14.8-16.2-0.3-9.2 6-16.9 14.1-17.2 4.2-0.1 8.1 1.7 11 5.1 2.6 3 4.1 6.9 4.2 11.1 0.1 4.2-1.1 8.3-3.4 11.4-2.7 3.6-6.6 5.7-10.7 5.8q-0.2 0-0.4 0zm0-20c-0.9 0-1.9 1.3-1.8 3.4 0.1 2.3 1.4 3.6 1.8 3.6 0 0 0.3-0.1 0.7-0.5 0.5-0.8 0.8-2 0.8-3.2 0-1.3-0.4-2.4-1.1-3.2q-0.2-0.1-0.4-0.1zm83.9 11.7q-1 0-2-0.1c-4.3-0.4-8.3-2.1-11.2-4.7-3.5-3.1-5.2-7.3-4.8-11.5 0.4-4.1 2.9-7.9 6.8-10.3 3.4-2.1 7.6-3 11.9-2.6 5.2 0.5 9.9 2.9 12.9 6.5 2.3 2.8 3.4 6.3 3.1 9.7-0.3 3.4-2 6.6-4.9 9-3.1 2.6-7.3 4-11.8 4zm-1.3-16.3c-2.2 0-3.6 1-3.8 1.4 0.2 0.2 1.6 1.6 4.3 1.9 2.7 0.2 4.4-0.9 4.6-1.3-0.1-0.3-1.6-1.7-4.3-1.9q-0.4-0.1-0.8-0.1zm4.2-14.1q-1 0-2.1-0.1c-9.7-0.9-16.7-8-16-16.1 0.4-4.2 2.9-8 6.9-10.4 3.3-2 7.6-2.9 11.8-2.5 4.3 0.4 8.3 2.1 11.3 4.7 3.4 3.1 5.2 7.2 4.8 11.4-0.7 7.6-7.9 13-16.7 13zm-1.3-16.2c-2.3 0-3.7 0.9-3.9 1.3 0.2 0.3 1.7 1.6 4.3 1.9 2.8 0.3 4.4-0.8 4.7-1.3-0.2-0.3-1.7-1.6-4.3-1.9h-0.1q-0.4 0-0.7 0zm4.1-14.1q-1 0-2-0.1c-4.3-0.4-8.3-2.1-11.2-4.7-3.5-3.1-5.2-7.3-4.8-11.5 0.4-4.2 2.9-7.9 6.8-10.3 3.4-2.1 7.6-3 11.9-2.6 4.3 0.4 8.3 2.1 11.2 4.7 3.5 3.1 5.2 7.3 4.8 11.5-0.4 4.2-2.9 7.9-6.8 10.3-2.9 1.8-6.3 2.7-9.9 2.7zm-1.3-16.3c-2.2 0-3.6 0.9-3.8 1.4 0.1 0.2 1.6 1.6 4.3 1.8 2.6 0.3 4.4-0.8 4.6-1.2-0.2-0.3-1.7-1.7-4.3-1.9q-0.4-0.1-0.8-0.1z"/>
				</g>
			</g>
			<g id="&lt;Group&gt;">
				<path id="&lt;Path&gt;" class="s1" d="m300.4 282.4c-1.5 0-2.9-0.9-3.6-2.3-0.9-2 0-4.3 2-5.2l101.7-46.7 10.9-117.4-96.1-68.2-107.2 49.2-6.9 73.4c-0.2 2.1-2 3.6-4.2 3.5-2.2-0.2-3.7-2.1-3.5-4.2l7-75.7c0.2-1.3 1-2.6 2.3-3.1l111.3-51.1c1.2-0.6 2.7-0.4 3.8 0.4l99.9 70.8c1.1 0.8 1.7 2.1 1.6 3.5l-11.4 121.9c-0.1 1.4-1 2.6-2.2 3.2l-103.8 47.6q-0.8 0.4-1.6 0.4z"/>
			</g>
			<g id="&lt;Group&gt;">
				<path id="&lt;Path&gt;" class="s1" d="m304.3 163.9c-0.8 0-1.6-0.2-2.3-0.7l-99.8-70.8c-1.8-1.3-2.2-3.7-1-5.4 1.3-1.8 3.7-2.2 5.5-1l98 69.5 109.2-50.1c1.9-0.9 4.3 0 5.2 1.9 0.9 2 0 4.3-1.9 5.2l-111.3 51.1q-0.8 0.3-1.6 0.3z"/>
			</g>
			<g id="&lt;Group&gt;">
				<path id="&lt;Path&gt;" class="s1" d="m294.6 262.5q-0.2 0-0.4-0.1c-2.1-0.2-3.7-2.1-3.5-4.2l9.7-98.6c0.2-2.1 2.1-3.7 4.3-3.4 2.1 0.2 3.7 2.1 3.5 4.2l-9.7 98.5c-0.2 2.1-1.9 3.6-3.9 3.6z"/>
			</g>
			<g id="&lt;Group&gt;">
				<path id="&lt;Compound Path&gt;" fill-rule="evenodd" class="s1" d="m313.5 80.7q-0.9 0-1.8 0c-3.7-0.4-7.2-1.8-9.7-4.1-2.9-2.5-4.3-5.9-4-9.3 0.6-6.5 7.6-11.3 15.9-10.5 3.8 0.3 7.2 1.8 9.8 4 2.8 2.6 4.2 5.9 3.9 9.3-0.6 6.1-6.6 10.6-14.1 10.6zm-1.3-16.2c-3.4 0-6.2 1.6-6.4 3.6-0.1 1.2 0.8 2.2 1.4 2.7 1.2 1.1 3.2 1.9 5.2 2.1h1.1c3.3 0 6.2-1.6 6.3-3.5 0.1-1.2-0.8-2.2-1.3-2.7-1.3-1.2-3.2-2-5.3-2.1z"/>
			</g>
			<g id="&lt;Group&gt;">
				<path id="&lt;Compound Path&gt;" fill-rule="evenodd" class="s1" d="m310.6 111.1q-0.9 0-1.7-0.1c-8.3-0.7-14.3-6.6-13.7-13.3 0.6-6.5 7.6-11.3 15.9-10.5 3.7 0.3 7.2 1.7 9.7 4 2.8 2.5 4.3 5.9 4 9.3-0.6 6-6.7 10.6-14.2 10.6zm-1.3-16.2c-3.3 0-6.2 1.6-6.3 3.5-0.2 2 2.6 4.5 6.6 4.9h1c3.7 0 6.2-1.8 6.4-3.6 0.1-1.2-0.8-2.2-1.4-2.7-1.3-1.1-3.2-1.9-5.2-2.1z"/>
			</g>
			<g id="&lt;Group&gt;">
				<path id="&lt;Compound Path&gt;" fill-rule="evenodd" class="s1" d="m307.8 141.5q-0.9 0-1.8-0.1c-3.7-0.4-7.2-1.8-9.7-4.1-2.8-2.5-4.3-5.9-4-9.2 0.7-6.6 7.7-11.4 16-10.6 4.5 0.4 8.5 2.4 11.1 5.5 1.9 2.3 2.8 5.1 2.5 7.8-0.5 6.1-6.6 10.7-14.1 10.7zm-1.3-16.3c-3.3 0-6.2 1.6-6.4 3.6-0.1 1.2 0.8 2.2 1.4 2.7 1.3 1.2 3.2 1.9 5.2 2.1l1.1 0.1c3.7 0 6.2-1.9 6.4-3.6 0-0.9-0.4-1.6-0.8-2.1-1.3-1.5-3.4-2.5-5.9-2.7z"/>
			</g>
			<g id="&lt;Group&gt;">
				<path id="&lt;Compound Path&gt;" fill-rule="evenodd" class="s1" d="m223.8 149.8c-6.5 0-11.9-6-12.1-13.7-0.3-7.8 4.9-14.3 11.6-14.5 6.9 0 12.2 6 12.5 13.7 0.1 3.6-0.9 7.1-2.9 9.8-2.2 2.9-5.4 4.6-8.7 4.7-0.1 0-0.3 0-0.4 0zm-0.2-20.4c-2.4 0.1-4.3 3.1-4.1 6.5 0.1 3.3 2.1 6.1 4.3 6.1v3.9l0.1-3.9c1.3 0 2.3-1 2.7-1.6 0.9-1.3 1.4-3 1.4-4.8-0.1-3.4-2.1-6.2-4.4-6.2z"/>
			</g>
			<g id="&lt;Group&gt;">
				<path id="&lt;Compound Path&gt;" fill-rule="evenodd" class="s1" d="m276.9 190.8c-6.6 0-12-6-12.2-13.7-0.1-3.6 0.9-7 2.9-9.7 2.2-2.9 5.3-4.7 8.7-4.8 6.9 0 12.2 6.1 12.5 13.7 0.2 7.8-5 14.3-11.6 14.5-0.1 0-0.3 0-0.3 0zm-0.3-20.4c-1.4 0.1-2.3 1.1-2.8 1.6-0.9 1.3-1.4 3-1.3 4.9 0.1 3.3 2.1 6.1 4.4 6.1v3.9-3.9c2.3 0 4.2-3 4.1-6.4-0.1-3.3-2.1-6.2-4.4-6.2z"/>
			</g>
			<g id="&lt;Group&gt;">
				<path id="&lt;Compound Path&gt;" fill-rule="evenodd" class="s1" d="m271.5 247.9c-6.6 0-11.9-6-12.2-13.7-0.2-7.8 5-14.3 11.6-14.5 7 0 12.3 6 12.5 13.7 0.3 7.8-4.9 14.3-11.5 14.5-0.1 0-0.3 0-0.4 0zm-0.2-20.4c-2.4 0.1-4.3 3-4.2 6.4 0.1 3.4 2.1 6.2 4.4 6.2v3.9l0.1-3.9c2.3-0.1 4.2-3 4-6.4-0.1-3.4-2.1-6.2-4.3-6.2z"/>
			</g>
			<g id="&lt;Group&gt;">
				<path id="&lt;Compound Path&gt;" fill-rule="evenodd" class="s1" d="m384.5 166.5c-0.2 0-1.2 0-1.4 0-6.8-0.9-11.4-8-10.4-16 0.9-7.3 6.4-12.8 12.7-12.8 0.2 0 1.2 0.1 1.4 0.1 3.4 0.4 6.4 2.5 8.3 5.6 1.8 3 2.5 6.6 2.1 10.3-1 7.3-6.4 12.8-12.7 12.8zm1.2-21c-2.3 0-4.8 2.3-5.3 6-0.4 3.6 1.2 6.9 3.7 7.2h0.4c2 0 4.5-2.3 4.9-6 0.3-1.9-0.1-3.8-0.9-5.2-0.4-0.7-1.3-1.8-2.7-2q0 0-0.1 0z"/>
			</g>
			<g id="&lt;Group&gt;">
				<path id="&lt;Compound Path&gt;" fill-rule="evenodd" class="s1" d="m323.1 251.7c-0.2 0-1.2 0-1.4-0.1-3.4-0.4-6.4-2.5-8.3-5.6-1.8-2.9-2.6-6.6-2.1-10.3 0.9-7.3 6.4-12.8 12.7-12.8 0.2 0 1.2 0.1 1.4 0.1 3.4 0.4 6.4 2.5 8.3 5.7 1.8 2.9 2.6 6.5 2.1 10.2-1 7.3-6.4 12.8-12.7 12.8zm1.3-21c-2.4 0-4.9 2.3-5.4 6-0.2 1.9 0.1 3.8 1 5.2 0.4 0.7 1.3 1.8 2.7 2h0.4c2 0 4.5-2.3 5-6 0.2-1.9-0.2-3.8-1-5.2-0.4-0.7-1.3-1.8-2.7-2q0 0 0 0z"/>
			</g>
			<g id="&lt;Group&gt;">
				<path id="&lt;Compound Path&gt;" fill-rule="evenodd" class="s1" d="m105.7 413.4c-1.2 0-2.4-0.6-3.1-1.6l-71.4-99.5c-0.8-1.2-0.9-2.7-0.4-3.9l50.5-111.5c0.6-1.3 1.8-2.2 3.2-2.3l121.8-12c1.4-0.1 2.8 0.4 3.6 1.6l71.3 99.5c0.8 1.1 1 2.6 0.4 3.8l-50.5 111.5c-0.6 1.3-1.8 2.2-3.2 2.3l-121.8 12.1q-0.2 0-0.4 0zm-66.8-103.9l68.7 95.9 117.3-11.6 48.7-107.4-68.7-95.9-117.4 11.6z"/>
			</g>
			<g id="&lt;Group&gt;">
				<path id="&lt;Path&gt;" class="s1" d="m34.4 313.9c-2 0-3.7-1.5-3.9-3.5-0.2-2.2 1.4-4.1 3.5-4.3l119.6-11.8 49.6-109.5c0.9-1.9 3.2-2.8 5.1-1.9 2 0.9 2.9 3.2 2 5.1l-50.5 111.6c-0.6 1.2-1.8 2.1-3.2 2.2l-121.8 12.1q-0.2 0-0.4 0z"/>
			</g>
			<g id="&lt;Group&gt;">
				<path id="&lt;Path&gt;" class="s1" d="m227.6 401.3c-1.3 0-2.4-0.5-3.2-1.6l-71.3-99.5c-1.3-1.7-0.9-4.2 0.9-5.4 1.7-1.3 4.1-0.9 5.4 0.9l71.3 99.5c1.3 1.7 0.9 4.2-0.9 5.4-0.7 0.5-1.5 0.7-2.2 0.7z"/>
			</g>
			<g id="&lt;Group&gt;">
				<path id="&lt;Compound Path&gt;" fill-rule="evenodd" class="s1" d="m98.8 234.8c-3.8 0-7.1-1.6-9.1-4.3-1.9-2.7-2.4-6.2-1.2-9.8 1-3.1 3.2-6 6.1-8.1 6.3-4.6 15-4 18.6 1 1.9 2.7 2.4 6.3 1.3 9.8-1.1 3.2-3.3 6.1-6.2 8.2-2.9 2.1-6.3 3.2-9.5 3.2zm5.4-17.7c-1.6 0-3.5 0.7-5 1.8-1.6 1.1-2.8 2.7-3.3 4.2-0.2 0.7-0.5 2 0.1 2.9 0.7 0.9 2 1 2.8 1 1.6 0 3.4-0.6 4.9-1.8 1.6-1.1 2.8-2.6 3.3-4.2 0.3-0.7 0.5-1.9-0.1-2.8-0.7-0.9-2-1.1-2.7-1.1z"/>
			</g>
			<g id="&lt;Group&gt;">
				<path id="&lt;Compound Path&gt;" fill-rule="evenodd" class="s1" d="m116.3 259.8c-3.8 0-7.1-1.6-9-4.3-3.9-5.4-1.7-13.3 4.9-18 6.2-4.5 14.9-4 18.6 1.1 1.9 2.7 2.3 6.3 1.2 9.8-1 3.1-3.2 6-6.2 8.2-2.9 2-6.3 3.2-9.5 3.2zm5.4-17.7c-1.6 0-3.4 0.6-5 1.8-3.1 2.2-4.2 5.5-3.1 7 0.6 0.9 2 1.1 2.7 1.1 1.6 0 3.4-0.7 5-1.8 1.6-1.1 2.8-2.7 3.3-4.2 0.2-0.7 0.5-2-0.2-2.8-0.6-1-2-1.1-2.7-1.1z"/>
			</g>
			<g id="&lt;Group&gt;">
				<path id="&lt;Compound Path&gt;" fill-rule="evenodd" class="s1" d="m133.8 284.8c-3.7 0-7-1.6-9-4.4-1.9-2.7-2.4-6.2-1.2-9.7 1-3.2 3.2-6.1 6.1-8.2 6.3-4.5 15-4 18.6 1.1 1.9 2.7 2.4 6.2 1.3 9.7-1.1 3.2-3.3 6.1-6.2 8.2-2.9 2.1-6.3 3.3-9.6 3.3zm5.5-17.7c-1.6 0-3.5 0.6-5 1.7-1.6 1.2-2.8 2.7-3.3 4.3-0.2 0.6-0.5 1.9 0.1 2.8 0.7 0.9 2 1.1 2.7 1.1 1.7 0 3.5-0.7 5-1.8 1.6-1.2 2.8-2.7 3.3-4.3 0.3-0.6 0.5-1.9-0.1-2.8-0.7-0.9-2-1-2.7-1z"/>
			</g>
			<g id="&lt;Group&gt;">
				<path id="&lt;Compound Path&gt;" fill-rule="evenodd" class="s1" d="m82 344.3c-3.9 0-7.7-1.8-10.6-4.9-5.2-5.6-5.5-13.7-0.7-18.2 4.6-4.3 13-3.3 18 2.1 2.8 3 4.3 6.8 4.1 10.5-0.1 3-1.3 5.7-3.4 7.7-1.9 1.8-4.6 2.8-7.4 2.8zm-3.9-18.1c-0.6 0-1.5 0.1-2.1 0.8-1.6 1.4-1.1 4.8 1.1 7.1 1.4 1.5 3.2 2.4 4.9 2.4 0.6 0 1.5-0.1 2.1-0.7 0.7-0.7 0.9-1.6 0.9-2.3 0.1-1.6-0.7-3.4-2-4.9-1.4-1.5-3.2-2.4-4.9-2.4z"/>
			</g>
			<g id="&lt;Group&gt;">
				<path id="&lt;Compound Path&gt;" fill-rule="evenodd" class="s1" d="m147.7 340c-3.9 0-7.7-1.8-10.6-4.9-2.8-3-4.3-6.8-4.1-10.5 0.1-3 1.3-5.7 3.4-7.6 4.6-4.3 13-3.4 18 2 2.4 2.6 3.9 5.8 4.1 9.1 0.3 3.6-0.9 6.9-3.4 9.1-1.9 1.8-4.6 2.8-7.4 2.8zm-3.9-18.1c-0.6 0-1.5 0.2-2.1 0.8-0.7 0.6-0.9 1.6-0.9 2.2-0.1 1.6 0.7 3.5 2 4.9 1.4 1.5 3.2 2.4 4.9 2.4 0.6 0 1.5-0.1 2.1-0.7 0.9-0.9 1-2.1 0.9-2.8-0.1-1.5-0.8-3.1-2-4.4-1.4-1.5-3.2-2.4-4.9-2.4z"/>
			</g>
			<g id="&lt;Group&gt;">
				<path id="&lt;Compound Path&gt;" fill-rule="evenodd" class="s1" d="m119.2 394.5c-3.8 0-7.7-1.8-10.6-4.9-5.1-5.6-5.5-13.7-0.7-18.2 4.7-4.3 13-3.3 18.1 2.1 5.1 5.6 5.5 13.7 0.7 18.2-2 1.8-4.6 2.8-7.5 2.8zm-3.9-18.1c-0.6 0-1.4 0.1-2.1 0.8-1.6 1.4-1 4.7 1.1 7.1 1.4 1.5 3.3 2.4 4.9 2.4 0.6 0 1.5-0.1 2.2-0.8 1.6-1.4 1-4.7-1.2-7.1-1.4-1.5-3.2-2.4-4.9-2.4z"/>
			</g>
			<g id="&lt;Group&gt;">
				<path id="&lt;Compound Path&gt;" fill-rule="evenodd" class="s1" d="m133.5 367.3c-3.9-0.1-7.7-1.8-10.6-4.9-5.2-5.6-5.6-13.7-0.8-18.2 4.7-4.3 13.1-3.3 18.1 2.1 5.2 5.5 5.5 13.7 0.7 18.1-1.9 1.9-4.6 2.8-7.4 2.8zm-3.9-18c-0.6 0-1.5 0.1-2.2 0.7-1.5 1.5-1 4.8 1.2 7.1 1.4 1.6 3.2 2.5 4.9 2.5 0.6 0 1.5-0.2 2.1-0.8 1.6-1.4 1-4.8-1.1-7.1-1.4-1.5-3.3-2.4-4.9-2.4z"/>
			</g>
			<g id="&lt;Group&gt;">
				<path id="&lt;Compound Path&gt;" fill-rule="evenodd" class="s1" d="m180.8 388.4c-3.8 0-7.7-1.8-10.6-4.9-2.4-2.6-3.8-5.8-4.1-9.1-0.2-3.5 1-6.8 3.4-9 4.6-4.3 13-3.4 18 2 2.4 2.6 3.9 5.8 4.1 9.1 0.3 3.5-0.9 6.8-3.3 9.1-2 1.8-4.6 2.8-7.5 2.8zm-3.9-18.1c-0.6 0-1.4 0.2-2.1 0.8-0.9 0.8-0.9 2.1-0.9 2.8 0.1 1.5 0.8 3 2 4.3 1.4 1.5 3.3 2.4 4.9 2.4 0.6 0 1.5-0.1 2.2-0.7 0.9-0.9 0.9-2.1 0.9-2.8-0.1-1.5-0.9-3.1-2.1-4.4-1.4-1.5-3.2-2.4-4.9-2.4z"/>
			</g>
			<g id="&lt;Group&gt;">
				<path id="&lt;Compound Path&gt;" fill-rule="evenodd" class="s1" d="m214.5 250.3c-4.6 0-9.2-2.6-12-6.9-2-3-3-6.5-2.7-9.9 0.3-3.7 2.1-6.8 4.9-8.7 5.5-3.6 13.9-1.2 18.1 5.1 2 3 3 6.6 2.7 9.9-0.3 3.7-2.1 6.8-4.9 8.7-1.8 1.2-3.9 1.8-6.1 1.8zm-3.7-19.5q-1 0-1.7 0.5c-1.2 0.7-1.4 2.1-1.5 2.9-0.1 1.5 0.4 3.4 1.4 4.9 1.9 2.8 5.3 4.3 7.2 2.9 1.2-0.7 1.4-2.1 1.5-2.8 0.1-1.6-0.4-3.4-1.4-5-1.4-2.1-3.5-3.4-5.5-3.4z"/>
			</g>
			<g id="&lt;Group&gt;">
				<path id="&lt;Compound Path&gt;" fill-rule="evenodd" class="s1" d="m232.8 277.6c-4.6 0-9.2-2.7-12-6.9-2-3.1-3-6.6-2.7-10 0.3-3.6 2.1-6.8 4.9-8.7 5.5-3.6 13.9-1.2 18.1 5.2 4.3 6.5 3.3 14.8-2.3 18.6-1.7 1.2-3.8 1.8-6 1.8zm-3.7-19.6q-1 0-1.7 0.5c-1.2 0.8-1.4 2.2-1.5 2.9-0.1 1.6 0.4 3.4 1.4 4.9 1.9 2.9 5.3 4.3 7.2 3 2-1.3 2-4.9 0.1-7.8-1.4-2.1-3.5-3.5-5.5-3.5z"/>
			</g>
			<g id="&lt;Group&gt;">
				<path id="&lt;Compound Path&gt;" fill-rule="evenodd" class="s1" d="m251.1 304.8c-4.6 0-9.2-2.6-12-6.9-4.4-6.5-3.4-14.9 2.2-18.6 5.4-3.6 13.9-1.2 18.1 5.1 2 3 2.9 6.6 2.6 10-0.3 3.6-2.1 6.8-4.9 8.6-1.7 1.2-3.8 1.8-6 1.8zm-3.7-19.5q-1 0-1.8 0.5c-1.9 1.3-2 4.9 0 7.8 1.8 2.8 5.3 4.2 7.2 2.9 1.1-0.7 1.4-2.1 1.5-2.8 0.1-1.6-0.4-3.4-1.4-5-1.4-2.1-3.6-3.4-5.5-3.4z"/>
			</g>
			<g id="&lt;Group&gt;">
				<path id="&lt;Compound Path&gt;" fill-rule="evenodd" class="s1" d="m206.5 333.4c-4.5 0-9.1-2.7-12-6.9-4.3-6.6-3.3-14.9 2.3-18.7 5.4-3.6 13.8-1.2 18 5.1 2 3.1 3 6.6 2.7 10-0.3 3.6-2.1 6.8-4.9 8.7-1.8 1.2-3.9 1.8-6.1 1.8zm-3.7-19.6q-1 0-1.7 0.5c-2 1.3-2 4.9-0.1 7.8 1.9 2.8 5.3 4.3 7.3 3 1.1-0.8 1.4-2.2 1.4-2.9 0.2-1.6-0.4-3.4-1.4-4.9-1.4-2.1-3.5-3.5-5.5-3.5z"/>
			</g>
			<g id="&lt;Group&gt;">
				<path id="&lt;Compound Path&gt;" fill-rule="evenodd" class="s1" d="m188.4 305.3c-4.6 0-9.2-2.7-12-6.9-2-3.1-3-6.6-2.7-10 0.3-3.6 2.1-6.8 4.9-8.7 5.5-3.6 13.9-1.2 18.1 5.2 4.3 6.5 3.3 14.9-2.3 18.6-1.7 1.2-3.8 1.8-6 1.8zm-3.7-19.6q-1 0.1-1.7 0.5c-1.2 0.8-1.4 2.1-1.5 2.9-0.2 1.6 0.4 3.4 1.4 4.9 1.9 2.9 5.3 4.3 7.2 3 2-1.3 2-4.9 0.1-7.8-1.4-2.1-3.6-3.5-5.5-3.5z"/>
			</g>
			<g id="&lt;Group&gt;">
				<path id="&lt;Compound Path&gt;" fill-rule="evenodd" class="s1" d="m224.6 361.4c-4.5 0-9.1-2.6-11.9-6.9-4.4-6.5-3.4-14.9 2.2-18.6 5.4-3.6 13.8-1.2 18 5.1 4.4 6.6 3.4 14.9-2.2 18.7-1.8 1.1-3.9 1.7-6.1 1.7zm-3.6-19.5q-1 0-1.8 0.5c-2 1.3-2 4.9-0.1 7.8 1.9 2.8 5.4 4.3 7.3 3 1.9-1.4 2-4.9 0.1-7.8-1.4-2.1-3.6-3.5-5.5-3.5z"/>
			</g>
			<g id="&lt;Group&gt;">
				<path id="&lt;Path&gt;" class="s2" d="m300.4 279.8c-0.5 0-1-0.3-1.2-0.8-0.3-0.6 0-1.4 0.6-1.7l103.1-47.3 11.3-120.4-98.7-70-109.9 50.5-7 74.8c0 0.8-0.7 1.3-1.4 1.2-0.7-0.1-1.2-0.7-1.2-1.4l7.1-75.6c0.1-0.5 0.4-0.9 0.8-1.1l111.2-51c0.5-0.2 1-0.2 1.3 0.1l99.9 70.8c0.4 0.3 0.6 0.7 0.5 1.2l-11.4 121.9c0 0.4-0.3 0.8-0.7 1l-103.8 47.7q-0.2 0.1-0.5 0.1z"/>
			</g>
			<g id="&lt;Group&gt;">
				<path id="&lt;Path&gt;" class="s2" d="m304.3 161.3q-0.4 0-0.8-0.2l-99.8-70.8c-0.6-0.4-0.8-1.3-0.3-1.8 0.4-0.6 1.2-0.8 1.8-0.3l99.2 70.3 110.6-50.7c0.6-0.3 1.4 0 1.7 0.6 0.3 0.7 0 1.4-0.6 1.7l-111.3 51.1q-0.2 0.1-0.5 0.1z"/>
			</g>
			<g id="&lt;Group&gt;">
				<path id="&lt;Path&gt;" class="s2" d="m294.6 259.9q0 0-0.1-0.1c-0.7 0-1.2-0.6-1.2-1.4l9.7-98.5c0-0.7 0.6-1.2 1.4-1.2 0.7 0.1 1.2 0.7 1.2 1.5l-9.7 98.5c0 0.7-0.6 1.2-1.3 1.2z"/>
			</g>
			<g id="&lt;Group&gt;">
				<path id="&lt;Compound Path&gt;" fill-rule="evenodd" class="s2" d="m313.5 78.1q-0.8 0-1.6 0c-3.1-0.3-6.1-1.5-8.2-3.4-2.2-2-3.3-4.5-3.1-7.1 0.5-5.1 6.3-8.9 13.1-8.2 3.2 0.3 6.1 1.5 8.2 3.4 2.3 2 3.4 4.5 3.1 7.1-0.4 4.7-5.4 8.2-11.5 8.2zm-1.3-16.2c-4.8 0-8.7 2.6-9 5.9-0.2 1.8 0.6 3.5 2.2 4.9 1.7 1.6 4.1 2.5 6.8 2.8 5.3 0.5 9.9-2.2 10.2-5.9 0.2-1.7-0.6-3.4-2.2-4.9-1.7-1.5-4.1-2.5-6.8-2.7q-0.6-0.1-1.2-0.1z"/>
			</g>
			<g id="&lt;Group&gt;">
				<path id="&lt;Compound Path&gt;" fill-rule="evenodd" class="s2" d="m310.6 108.5q-0.7 0-1.5-0.1c-6.7-0.6-11.8-5.3-11.3-10.5 0.5-5.1 6.2-8.8 13-8.2 3.2 0.3 6.2 1.5 8.3 3.4 2.2 2 3.3 4.6 3.1 7.1-0.5 4.8-5.4 8.3-11.6 8.3zm-1.3-16.2c-4.8 0-8.6 2.5-8.9 5.9-0.4 3.7 3.6 7.2 8.9 7.6 5.3 0.6 9.9-2.1 10.3-5.8 0.1-1.7-0.7-3.5-2.3-4.9-1.7-1.5-4.1-2.5-6.7-2.8q-0.6 0-1.3 0z"/>
			</g>
			<g id="&lt;Group&gt;">
				<path id="&lt;Compound Path&gt;" fill-rule="evenodd" class="s2" d="m307.8 138.9q-0.8 0-1.5-0.1c-3.2-0.3-6.2-1.5-8.3-3.4-2.2-2-3.3-4.5-3.1-7.1 0.5-5.1 6.2-8.8 13.1-8.2 3.8 0.4 7.2 2 9.4 4.6 1.4 1.8 2.1 3.8 1.9 5.9-0.4 4.7-5.4 8.3-11.5 8.3zm-1.3-16.3c-4.8 0-8.6 2.6-9 5.9-0.1 1.8 0.7 3.5 2.3 5 1.7 1.5 4.1 2.5 6.7 2.7 5.3 0.5 9.9-2.2 10.2-5.8 0.2-1.4-0.3-2.8-1.3-4.1-1.7-2-4.5-3.3-7.6-3.6q-0.7-0.1-1.3-0.1z"/>
			</g>
			<g id="&lt;Group&gt;">
				<path id="&lt;Compound Path&gt;" fill-rule="evenodd" class="s2" d="m223.8 147.2c-5.1 0-9.3-4.9-9.5-11.2-0.2-6.3 3.8-11.6 9-11.8h0.1c5.4 0 9.6 4.9 9.8 11.2 0.1 3-0.8 5.9-2.4 8.1-1.7 2.3-4.1 3.6-6.7 3.7 0 0-0.2 0-0.3 0zm-0.2-20.4c-4 0.1-6.9 4.2-6.7 9.1 0.1 4.8 3.2 8.7 6.9 8.7v1.3l0.2-1.3c1.8-0.1 3.5-1 4.7-2.7 1.3-1.7 2-4 1.9-6.4-0.2-4.8-3.3-8.7-7-8.7z"/>
			</g>
			<g id="&lt;Group&gt;">
				<path id="&lt;Compound Path&gt;" fill-rule="evenodd" class="s2" d="m276.9 188.2c-5.2 0-9.4-4.9-9.6-11.2-0.1-3 0.7-5.9 2.4-8.1 1.7-2.3 4.1-3.6 6.6-3.7 5.5 0 9.7 4.9 9.9 11.2 0.2 6.4-3.9 11.7-9.1 11.8 0 0-0.2 0-0.2 0zm-0.3-20.4c-1.9 0.1-3.6 1-4.8 2.7-1.4 1.7-2 4-1.9 6.5 0.1 4.8 3.3 8.6 7 8.6v1.3l0.1-1.3c3.8-0.1 6.7-4.2 6.6-9.1-0.2-4.8-3.3-8.7-7-8.7z"/>
			</g>
			<g id="&lt;Group&gt;">
				<path id="&lt;Compound Path&gt;" fill-rule="evenodd" class="s2" d="m271.5 245.3c-5.2 0-9.4-4.9-9.6-11.2-0.2-6.3 3.9-11.6 9.1-11.8 5.4 0 9.6 4.9 9.8 11.2 0.2 6.3-3.8 11.6-9 11.8-0.1 0-0.3 0-0.3 0zm-0.2-20.4c-4 0.1-6.9 4.2-6.8 9.1 0.2 4.8 3.3 8.7 7 8.7v1.3l0.2-1.3c3.8-0.1 6.7-4.2 6.5-9.1-0.1-4.8-3.2-8.7-6.9-8.7z"/>
			</g>
			<g id="&lt;Group&gt;">
				<path id="&lt;Compound Path&gt;" fill-rule="evenodd" class="s2" d="m384.5 163.9q-0.6 0-1.1 0c-5.3-0.7-9-6.5-8.1-13 0.8-6.5 5.7-11.2 11.2-10.5 2.6 0.3 4.9 1.9 6.4 4.4 1.5 2.4 2.1 5.5 1.7 8.6-0.8 6-5.1 10.5-10.1 10.5zm0.9-21c-3.6 0-6.9 3.6-7.5 8.3-0.7 5.1 2 9.6 5.9 10.1 3.8 0.5 7.6-3.3 8.2-8.3 0.3-2.5-0.1-4.9-1.3-6.9-1.1-1.8-2.7-2.9-4.6-3.2q-0.3 0-0.7 0z"/>
			</g>
			<g id="&lt;Group&gt;">
				<path id="&lt;Compound Path&gt;" fill-rule="evenodd" class="s2" d="m323.1 249.1q-0.5 0-1.1 0c-2.6-0.4-4.9-1.9-6.4-4.5-1.5-2.4-2.1-5.4-1.7-8.5 0.8-6.5 5.8-11.1 11.2-10.5 2.6 0.3 4.9 1.9 6.4 4.4 1.5 2.4 2.1 5.5 1.7 8.5-0.8 6.1-5.1 10.6-10.1 10.6zm0.9-21c-3.6 0-6.9 3.6-7.5 8.3-0.4 2.5 0.1 4.9 1.3 6.9 1.1 1.8 2.7 3 4.6 3.2 4 0.5 7.6-3.3 8.2-8.3 0.4-2.5-0.1-4.9-1.3-6.8-1.1-1.9-2.7-3-4.6-3.3q-0.3 0-0.7 0z"/>
			</g>
			<g id="&lt;Group&gt;">
				<path id="&lt;Compound Path&gt;" fill-rule="evenodd" class="s2" d="m105.7 410.8c-0.4 0-0.8-0.2-1-0.6l-71.4-99.5c-0.2-0.3-0.3-0.8-0.1-1.3l50.5-111.5c0.2-0.4 0.6-0.7 1.1-0.7l121.8-12.1c0.4-0.1 0.9 0.2 1.2 0.6l71.3 99.5c0.3 0.3 0.3 0.8 0.1 1.3l-50.5 111.5c-0.1 0.4-0.6 0.7-1 0.7l-121.8 12.1q-0.1 0-0.2 0zm-69.8-101l70.4 98.3 120.4-11.9 49.9-110.1-70.5-98.3-120.3 11.9z"/>
			</g>
			<g id="&lt;Group&gt;">
				<path id="&lt;Path&gt;" class="s2" d="m34.4 311.3c-0.7 0-1.2-0.5-1.3-1.2-0.1-0.7 0.5-1.3 1.2-1.4l121.1-12 50.1-110.8c0.3-0.7 1.1-0.9 1.8-0.7 0.6 0.3 0.9 1.1 0.6 1.8l-50.5 111.5c-0.2 0.4-0.6 0.7-1 0.7l-121.9 12.1q0 0-0.1 0z"/>
			</g>
			<g id="&lt;Group&gt;">
				<path id="&lt;Path&gt;" class="s2" d="m227.6 398.7c-0.4 0-0.8-0.1-1.1-0.5l-71.3-99.5c-0.4-0.6-0.3-1.4 0.3-1.8 0.5-0.4 1.4-0.3 1.8 0.3l71.3 99.5c0.4 0.6 0.3 1.4-0.3 1.8q-0.3 0.2-0.7 0.2z"/>
			</g>
			<g id="&lt;Group&gt;">
				<path id="&lt;Compound Path&gt;" fill-rule="evenodd" class="s2" d="m98.8 232.2c-3 0-5.5-1.2-7-3.2-1.5-2.1-1.8-4.7-0.9-7.5 0.9-2.6 2.7-5 5.3-6.8 5.1-3.7 12.1-3.5 14.9 0.4 1.5 2.1 1.8 4.7 0.9 7.5-0.9 2.6-2.7 5.1-5.2 6.9-2.5 1.7-5.3 2.7-8 2.7zm5.4-17.7c-2.2 0-4.5 0.8-6.5 2.3-2.1 1.5-3.6 3.4-4.3 5.5-0.6 2-0.4 3.8 0.5 5.2 2 2.8 7.4 2.7 11.4-0.1 2-1.5 3.5-3.5 4.2-5.6 0.6-2 0.5-3.8-0.5-5.1-1-1.4-2.7-2.2-4.8-2.2z"/>
			</g>
			<g id="&lt;Group&gt;">
				<path id="&lt;Compound Path&gt;" fill-rule="evenodd" class="s2" d="m116.3 257.2c-2.9 0-5.5-1.2-6.9-3.2-3-4.1-1-10.6 4.3-14.4 5.1-3.6 12.1-3.4 14.9 0.5 1.5 2.1 1.8 4.7 0.9 7.5-0.8 2.6-2.7 5-5.2 6.8-2.4 1.8-5.3 2.8-8 2.8zm5.4-17.7c-2.2 0-4.5 0.8-6.5 2.3-4.1 2.9-5.8 7.7-3.7 10.7 2 2.7 7.3 2.7 11.3-0.2 2.1-1.5 3.6-3.4 4.3-5.5 0.6-2 0.4-3.8-0.6-5.1-0.9-1.4-2.7-2.2-4.8-2.2z"/>
			</g>
			<g id="&lt;Group&gt;">
				<path id="&lt;Compound Path&gt;" fill-rule="evenodd" class="s2" d="m133.8 282.2c-2.9 0-5.4-1.2-6.9-3.3-1.4-2-1.8-4.7-0.9-7.4 0.9-2.6 2.7-5.1 5.3-6.9 5.1-3.7 12.1-3.5 14.9 0.5 1.5 2 1.8 4.7 0.9 7.5-0.9 2.6-2.7 5-5.2 6.8-2.5 1.8-5.3 2.8-8.1 2.8zm5.5-17.7c-2.2 0-4.5 0.8-6.5 2.2-2.1 1.5-3.6 3.5-4.3 5.6-0.6 1.9-0.4 3.7 0.5 5.1 2 2.8 7.3 2.8 11.4-0.1 2-1.5 3.5-3.4 4.2-5.6 0.6-1.9 0.5-3.7-0.5-5.1-1-1.4-2.7-2.1-4.8-2.1z"/>
			</g>
			<g id="&lt;Group&gt;">
				<path id="&lt;Compound Path&gt;" fill-rule="evenodd" class="s2" d="m82 341.7c-3.1 0-6.3-1.5-8.7-4.1-4.2-4.5-4.6-11-0.9-14.5 3.7-3.3 10.3-2.4 14.4 2 2.3 2.4 3.5 5.6 3.4 8.6-0.1 2.3-1 4.4-2.5 5.9-1.5 1.4-3.5 2.1-5.7 2.1zm-3.9-18.1c-1.6 0-2.9 0.5-3.9 1.5-2.7 2.4-2.2 7.3 1 10.8 3.1 3.3 8.1 4.2 10.7 1.7 1.1-0.9 1.7-2.3 1.7-4 0.1-2.3-0.9-4.8-2.7-6.8-1.9-2-4.4-3.2-6.8-3.2z"/>
			</g>
			<g id="&lt;Group&gt;">
				<path id="&lt;Compound Path&gt;" fill-rule="evenodd" class="s2" d="m147.7 337.4c-3.1 0-6.3-1.5-8.7-4.1-2.3-2.4-3.5-5.6-3.4-8.6 0.1-2.3 1-4.4 2.5-5.8 3.7-3.4 10.3-2.5 14.4 1.9 2 2.1 3.2 4.8 3.4 7.5 0.2 2.8-0.7 5.3-2.5 7-1.5 1.4-3.5 2.1-5.7 2.1zm-3.9-18.1c-1.5 0-2.9 0.5-3.9 1.5-1.1 1-1.7 2.4-1.7 4-0.1 2.3 0.9 4.8 2.7 6.8 3.1 3.3 8.1 4.2 10.7 1.8 1.3-1.2 1.9-2.9 1.7-4.9-0.1-2.1-1.1-4.2-2.7-5.9-1.9-2-4.4-3.3-6.8-3.3z"/>
			</g>
			<g id="&lt;Group&gt;">
				<path id="&lt;Compound Path&gt;" fill-rule="evenodd" class="s2" d="m119.2 391.9c-3.1 0-6.3-1.5-8.7-4.1-4.2-4.5-4.6-11-0.8-14.5 3.6-3.3 10.2-2.4 14.4 2 4.2 4.5 4.5 11 0.8 14.5-1.5 1.3-3.4 2.1-5.7 2.1zm-3.9-18.1c-1.5 0-2.8 0.5-3.9 1.5-2.6 2.4-2.2 7.3 1 10.8 3.1 3.3 8.2 4.2 10.7 1.8 2.7-2.5 2.3-7.4-1-10.9-1.8-2-4.4-3.2-6.8-3.2z"/>
			</g>
			<g id="&lt;Group&gt;">
				<path id="&lt;Compound Path&gt;" fill-rule="evenodd" class="s2" d="m133.5 364.6c-3.2 0-6.3-1.4-8.7-4-4.2-4.5-4.6-11-0.9-14.5 3.6-3.4 10.3-2.4 14.4 1.9 4.2 4.6 4.6 11.1 0.8 14.5-1.5 1.4-3.4 2.1-5.6 2.1zm-3.9-18c-1.6 0-2.9 0.5-3.9 1.4-2.7 2.5-2.3 7.4 1 10.8 3.1 3.4 8.1 4.2 10.7 1.8 2.6-2.5 2.2-7.3-1-10.8-1.9-2-4.5-3.2-6.8-3.2z"/>
			</g>
			<g id="&lt;Group&gt;">
				<path id="&lt;Compound Path&gt;" fill-rule="evenodd" class="s2" d="m180.8 385.8c-3.1 0-6.3-1.5-8.7-4.1-2-2.1-3.2-4.8-3.4-7.4-0.2-2.8 0.7-5.3 2.6-7 3.6-3.4 10.3-2.5 14.3 1.9 2 2.2 3.2 4.8 3.4 7.5 0.2 2.8-0.6 5.3-2.5 7-1.5 1.4-3.5 2.1-5.7 2.1zm-3.9-18.1c-1.5 0-2.9 0.5-3.9 1.5-1.2 1.1-1.8 2.9-1.7 4.9 0.2 2.1 1.1 4.2 2.7 5.9 3.1 3.3 8.1 4.2 10.7 1.8 1.3-1.2 1.9-2.9 1.8-4.9-0.2-2.1-1.2-4.2-2.8-5.9-1.8-2-4.4-3.3-6.8-3.3z"/>
			</g>
			<g id="&lt;Group&gt;">
				<path id="&lt;Compound Path&gt;" fill-rule="evenodd" class="s2" d="m214.5 247.7c-3.7 0-7.5-2.2-9.8-5.7-1.7-2.6-2.5-5.5-2.3-8.3 0.3-2.9 1.6-5.3 3.8-6.7 1.3-0.9 2.9-1.4 4.6-1.4 3.7 0 7.5 2.2 9.8 5.8 1.7 2.5 2.5 5.4 2.3 8.2-0.3 2.9-1.6 5.3-3.8 6.8-1.3 0.9-2.9 1.3-4.6 1.3zm-3.7-19.5q-1.8 0-3.2 0.9c-1.5 1-2.4 2.7-2.6 4.8-0.2 2.2 0.5 4.6 1.8 6.6 2.7 4.1 7.7 5.8 10.9 3.7 1.5-1 2.4-2.7 2.6-4.8 0.2-2.2-0.5-4.5-1.8-6.6-1.9-2.9-4.8-4.6-7.7-4.6z"/>
			</g>
			<g id="&lt;Group&gt;">
				<path id="&lt;Compound Path&gt;" fill-rule="evenodd" class="s2" d="m232.8 275c-3.7 0-7.5-2.2-9.8-5.8-1.7-2.5-2.5-5.5-2.3-8.2 0.3-2.9 1.6-5.3 3.8-6.8 1.3-0.9 2.9-1.4 4.6-1.4 3.7 0 7.5 2.3 9.8 5.8 3.6 5.3 2.9 12.1-1.5 15-1.3 0.9-2.9 1.4-4.6 1.4zm-3.7-19.6q-1.8 0-3.2 1c-1.5 1-2.4 2.7-2.6 4.8-0.2 2.2 0.5 4.5 1.8 6.6 2.7 4 7.7 5.7 10.9 3.6 3.2-2.1 3.5-7.2 0.8-11.4-1.9-2.8-4.9-4.6-7.7-4.6z"/>
			</g>
			<g id="&lt;Group&gt;">
				<path id="&lt;Compound Path&gt;" fill-rule="evenodd" class="s2" d="m251.1 302.2c-3.7 0-7.5-2.2-9.9-5.7-3.5-5.4-2.8-12.1 1.6-15.1 1.3-0.8 2.9-1.3 4.6-1.3 3.7 0 7.4 2.2 9.8 5.8 1.7 2.5 2.5 5.4 2.3 8.2-0.3 2.9-1.6 5.3-3.8 6.8-1.4 0.9-3 1.3-4.6 1.3zm-3.7-19.5q-1.8 0-3.2 0.9c-3.2 2.2-3.6 7.3-0.8 11.4 2.7 4 7.7 5.8 10.8 3.7 1.6-1 2.5-2.7 2.7-4.8 0.2-2.2-0.5-4.6-1.9-6.6-1.8-2.9-4.8-4.6-7.6-4.6z"/>
			</g>
			<g id="&lt;Group&gt;">
				<path id="&lt;Compound Path&gt;" fill-rule="evenodd" class="s2" d="m206.5 330.8c-3.7 0-7.4-2.2-9.8-5.8-3.6-5.3-2.9-12.1 1.5-15 1.3-0.9 2.9-1.4 4.6-1.4 3.7 0 7.5 2.2 9.8 5.8 1.7 2.5 2.5 5.5 2.3 8.3-0.3 2.9-1.6 5.3-3.8 6.7-1.3 0.9-2.9 1.4-4.6 1.4zm-3.7-19.6q-1.7 0-3.2 1c-3.2 2.1-3.5 7.2-0.8 11.4 2.7 4 7.7 5.7 10.9 3.6 1.5-1 2.4-2.7 2.6-4.8 0.2-2.2-0.4-4.5-1.8-6.6-1.9-2.8-4.8-4.6-7.7-4.6z"/>
			</g>
			<g id="&lt;Group&gt;">
				<path id="&lt;Compound Path&gt;" fill-rule="evenodd" class="s2" d="m188.4 302.7c-3.7 0-7.5-2.2-9.8-5.8-1.7-2.5-2.5-5.5-2.3-8.2 0.3-2.9 1.6-5.3 3.8-6.8 1.3-0.9 2.9-1.3 4.6-1.3 3.7 0 7.4 2.1 9.8 5.7 3.6 5.3 2.9 12.1-1.5 15-1.3 0.9-2.9 1.4-4.6 1.4zm-3.7-19.5q-1.8-0.1-3.2 0.9c-1.5 1-2.4 2.7-2.6 4.8-0.2 2.2 0.5 4.5 1.8 6.6 2.7 4 7.7 5.7 10.9 3.6 3.2-2.1 3.5-7.2 0.8-11.4-1.9-2.8-4.9-4.5-7.7-4.5z"/>
			</g>
			<g id="&lt;Group&gt;">
				<path id="&lt;Compound Path&gt;" fill-rule="evenodd" class="s2" d="m224.6 358.8c-3.7 0-7.4-2.2-9.8-5.7-3.5-5.3-2.9-12.1 1.5-15 1.4-0.9 3-1.4 4.7-1.4 3.7 0 7.4 2.2 9.8 5.8 3.5 5.3 2.8 12.1-1.5 15-1.4 0.9-3 1.3-4.7 1.3zm-3.6-19.5q-1.8 0-3.2 0.9c-3.2 2.2-3.6 7.3-0.8 11.5 2.7 4 7.7 5.7 10.8 3.6 3.2-2.1 3.6-7.2 0.8-11.4-1.9-2.8-4.8-4.6-7.6-4.6z"/>
			</g>
		</g>
	</g>
</svg>